<svg width="80" height="9" viewBox="0 0 80 9" fill="none" xmlns="http://www.w3.org/2000/svg">
<path d="M0.876 8.70001V0.300012H3.744C4.416 0.300012 4.968 0.412012 5.4 0.636012C5.832 0.860012 6.152 1.16001 6.36 1.53601C6.568 1.91201 6.672 2.34001 6.672 2.82001C6.672 3.27601 6.568 3.69601 6.36 4.08001C6.16 4.45601 5.844 4.76001 5.412 4.99201C4.98 5.21601 4.424 5.32801 3.744 5.32801H2.076V8.70001H0.876ZM2.076 4.33201H3.696C4.328 4.33201 4.776 4.19601 5.04 3.92401C5.312 3.64401 5.448 3.27601 5.448 2.82001C5.448 2.33201 5.312 1.95601 5.04 1.69201C4.776 1.42801 4.328 1.29601 3.696 1.29601H2.076V4.33201ZM7.90584 8.70001V0.0600119H9.10584V8.70001H7.90584ZM12.7575 8.84401C12.2615 8.84401 11.8495 8.76001 11.5215 8.59201C11.1935 8.42401 10.9495 8.20001 10.7895 7.92001C10.6295 7.63201 10.5495 7.32401 10.5495 6.99601C10.5495 6.59601 10.6535 6.25601 10.8615 5.97601C11.0695 5.68801 11.3655 5.46801 11.7495 5.31601C12.1335 5.16401 12.5935 5.08801 13.1295 5.08801H14.7015C14.7015 4.73601 14.6495 4.44401 14.5455 4.21201C14.4415 3.98001 14.2855 3.80801 14.0775 3.69601C13.8775 3.57601 13.6215 3.51601 13.3095 3.51601C12.9495 3.51601 12.6415 3.60401 12.3855 3.78001C12.1295 3.94801 11.9695 4.20001 11.9055 4.53601H10.7055C10.7535 4.11201 10.8975 3.75201 11.1375 3.45601C11.3855 3.15201 11.7015 2.92001 12.0855 2.76001C12.4695 2.59201 12.8775 2.50801 13.3095 2.50801C13.8775 2.50801 14.3535 2.60801 14.7375 2.80801C15.1215 3.00801 15.4095 3.29201 15.6015 3.66001C15.8015 4.02001 15.9015 4.45201 15.9015 4.95601V8.70001H14.8575L14.7615 7.68001C14.6735 7.84001 14.5695 7.99201 14.4495 8.13601C14.3295 8.28001 14.1855 8.40401 14.0175 8.50801C13.8575 8.61201 13.6695 8.69201 13.4535 8.74801C13.2455 8.81201 13.0135 8.84401 12.7575 8.84401ZM12.9855 7.87201C13.2415 7.87201 13.4735 7.82001 13.6815 7.71601C13.8895 7.61201 14.0655 7.47201 14.2095 7.29601C14.3615 7.11201 14.4735 6.90801 14.5455 6.68401C14.6255 6.45201 14.6695 6.21601 14.6775 5.97601V5.94001H13.2495C12.9055 5.94001 12.6255 5.98401 12.4095 6.07201C12.2015 6.15201 12.0495 6.26401 11.9535 6.40801C11.8575 6.55201 11.8095 6.72001 11.8095 6.91201C11.8095 7.11201 11.8535 7.28401 11.9415 7.42801C12.0375 7.56401 12.1735 7.67201 12.3495 7.75201C12.5255 7.83201 12.7375 7.87201 12.9855 7.87201ZM19.8003 8.70001C19.4163 8.70001 19.0843 8.64001 18.8043 8.52001C18.5243 8.40001 18.3083 8.20001 18.1563 7.92001C18.0043 7.64001 17.9283 7.26001 17.9283 6.78001V3.67201H16.8843V2.65201H17.9283L18.0723 1.14001H19.1283V2.65201H20.8443V3.67201H19.1283V6.79201C19.1283 7.13601 19.2003 7.37201 19.3443 7.50001C19.4883 7.62001 19.7363 7.68001 20.0883 7.68001H20.7843V8.70001H19.8003ZM22.2516 8.70001V2.65201H23.4516V8.70001H22.2516ZM22.8636 1.51201C22.6316 1.51201 22.4396 1.44001 22.2876 1.29601C22.1436 1.15201 22.0716 0.968012 22.0716 0.744012C22.0716 0.528012 22.1436 0.352012 22.2876 0.216012C22.4396 0.0720119 22.6316 1.19209e-05 22.8636 1.19209e-05C23.0876 1.19209e-05 23.2756 0.0720119 23.4276 0.216012C23.5796 0.352012 23.6556 0.528012 23.6556 0.744012C23.6556 0.968012 23.5796 1.15201 23.4276 1.29601C23.2756 1.44001 23.0876 1.51201 22.8636 1.51201ZM25.1676 8.70001V2.65201H26.2476L26.3196 3.68401C26.5116 3.32401 26.7836 3.04001 27.1356 2.83201C27.4876 2.61601 27.8916 2.50801 28.3476 2.50801C28.8276 2.50801 29.2396 2.60401 29.5836 2.79601C29.9276 2.98801 30.1956 3.28001 30.3876 3.67201C30.5796 4.05601 30.6756 4.54001 30.6756 5.12401V8.70001H29.4756V5.24401C29.4756 4.68401 29.3516 4.26001 29.1036 3.97201C28.8556 3.68401 28.4956 3.54001 28.0236 3.54001C27.7116 3.54001 27.4316 3.61601 27.1836 3.76801C26.9356 3.91201 26.7356 4.12801 26.5836 4.41601C26.4396 4.70401 26.3676 5.05601 26.3676 5.47201V8.70001H25.1676ZM34.4305 8.84401C33.9585 8.84401 33.5465 8.74801 33.1945 8.55601C32.8505 8.36401 32.5825 8.07601 32.3905 7.69201C32.2065 7.30801 32.1145 6.82401 32.1145 6.24001V2.65201H33.3145V6.10801C33.3145 6.67601 33.4385 7.10401 33.6865 7.39201C33.9345 7.68001 34.2905 7.82401 34.7545 7.82401C35.0665 7.82401 35.3465 7.74801 35.5945 7.59601C35.8505 7.44401 36.0505 7.22401 36.1945 6.93601C36.3385 6.64801 36.4105 6.29601 36.4105 5.88001V2.65201H37.6105V8.70001H36.5425L36.4585 7.66801C36.2745 8.03601 36.0065 8.32401 35.6545 8.53201C35.3025 8.74001 34.8945 8.84401 34.4305 8.84401ZM39.2535 8.70001V2.65201H40.3335L40.4175 3.50401C40.6095 3.19201 40.8655 2.94801 41.1855 2.77201C41.5055 2.59601 41.8655 2.50801 42.2655 2.50801C42.5695 2.50801 42.8455 2.55201 43.0935 2.64001C43.3415 2.72001 43.5615 2.84401 43.7535 3.01201C43.9455 3.18001 44.1015 3.38801 44.2215 3.63601C44.4375 3.28401 44.7255 3.00801 45.0855 2.80801C45.4535 2.60801 45.8415 2.50801 46.2495 2.50801C46.7375 2.50801 47.1575 2.60801 47.5095 2.80801C47.8615 3.00001 48.1295 3.29201 48.3135 3.68401C48.4975 4.06801 48.5895 4.54801 48.5895 5.12401V8.70001H47.4015V5.24401C47.4015 4.68401 47.2855 4.26001 47.0535 3.97201C46.8295 3.68401 46.4975 3.54001 46.0575 3.54001C45.7615 3.54001 45.4975 3.61601 45.2655 3.76801C45.0335 3.92001 44.8495 4.14001 44.7135 4.42801C44.5855 4.71601 44.5215 5.06801 44.5215 5.48401V8.70001H43.3215V5.24401C43.3215 4.68401 43.2055 4.26001 42.9735 3.97201C42.7495 3.68401 42.4175 3.54001 41.9775 3.54001C41.6975 3.54001 41.4415 3.61601 41.2095 3.76801C40.9775 3.92001 40.7935 4.14001 40.6575 4.42801C40.5215 4.71601 40.4535 5.06801 40.4535 5.48401V8.70001H39.2535Z" fill="url(#paint0_linear_94_60935)"/>
<path d="M68.4509 0.710877C69.18 0.710877 69.8199 0.86668 70.3708 1.17827C70.6868 1.35944 70.9561 1.58045 71.1789 1.84131C71.4016 2.10217 71.5698 2.39566 71.6832 2.72175C71.7155 2.80146 71.7358 2.8703 71.7439 2.92827C71.7439 2.95002 71.7479 2.9645 71.7561 2.97174C71.7642 3.01522 71.7702 3.05871 71.7743 3.10218C71.7783 3.14566 71.7844 3.18552 71.7924 3.22175V3.24349C71.8006 3.28696 71.8067 3.33044 71.8107 3.37393C71.8148 3.4174 71.8168 3.46451 71.8168 3.51522V3.53698C71.8168 3.58769 71.8148 3.63479 71.8107 3.67828C71.8067 3.72174 71.8006 3.76523 71.7924 3.80869L71.7561 4.08045C71.7479 4.08769 71.7439 4.10219 71.7439 4.12393C71.7358 4.16016 71.7277 4.19279 71.7195 4.22176C71.7115 4.25074 71.6993 4.28333 71.6832 4.31958C71.5698 4.65291 71.4016 4.95001 71.1789 5.21089C70.9561 5.47175 70.6868 5.69274 70.3708 5.87392C70.1035 6.01885 69.8078 6.13298 69.4838 6.2163C69.2971 6.2643 69.1037 6.29851 68.9036 6.31885L71.3811 8.70001H69.429L67.053 6.34132L65.9982 5.31957H68.6088C68.8761 5.31957 69.1212 5.26884 69.344 5.16739C69.5668 5.06595 69.7613 4.9319 69.9273 4.76524C70.0933 4.59857 70.223 4.40832 70.3162 4.19456C70.4093 3.98081 70.4558 3.75797 70.4558 3.52609C70.4558 3.2942 70.4093 3.07139 70.3162 2.85761C70.223 2.64386 70.0933 2.45363 69.9273 2.28696C69.7613 2.12031 69.5668 1.98624 69.344 1.88478C69.1212 1.78333 68.8761 1.73262 68.6088 1.73262H64.2668L64.2546 4.04546H62.9544V0.710877L64.2546 0.700012L68.4509 0.710877ZM57.9215 0.700387C57.9538 0.69963 57.9861 0.700387 58.0186 0.700387L58.0569 0.700555L62.0372 0.700387L62.0262 1.93212V8.66744H60.997V1.93212H58.0131C57.6035 1.93212 57.2177 2.00822 56.8558 2.161C56.4938 2.31379 56.1775 2.5289 55.9069 2.80633C55.6363 3.08377 55.4224 3.41146 55.2651 3.78941C55.1079 4.16734 55.0293 4.57748 55.0293 5.01974V8.66744H54L54 4.875C54 4.27993 54.1058 3.72306 54.3175 3.20437C54.5292 2.68571 54.8176 2.23337 55.1826 1.84738C55.5476 1.46139 55.9728 1.15581 56.4582 0.93066C56.9153 0.718675 57.4031 0.712799 57.9215 0.700387ZM80 0.700051V1.72179L77.0403 1.72178C76.5947 1.72178 76.1815 1.79984 75.8008 1.95591C75.4202 2.11199 75.09 2.32435 74.8105 2.59298C74.531 2.86161 74.3143 3.17559 74.1605 3.53487C74.0065 3.8942 73.9296 4.27716 73.9296 4.68374C73.9296 5.09034 74.0065 5.47329 74.1605 5.8326C74.3143 6.19193 74.529 6.50591 74.8045 6.77452C75.0799 7.04314 75.408 7.25551 75.7887 7.41158C76.1694 7.56767 76.5866 7.64572 77.0403 7.64572H80V8.66744H76.8944C76.2788 8.66744 75.7078 8.56235 75.181 8.35224C74.6546 8.14207 74.1989 7.85764 73.814 7.49897C73.4293 7.14027 73.1276 6.71997 72.9088 6.23809C72.6901 5.7562 72.5807 5.2399 72.5807 4.68918C72.5807 4.13846 72.6941 3.62215 72.9209 3.14027C73.1478 2.65839 73.4556 2.23627 73.8444 1.87396C74.2333 1.51166 74.689 1.22541 75.2116 1.01527C75.7339 0.805125 76.2949 0.700051 76.8944 0.700051H80Z" fill="url(#paint1_linear_94_60935)"/>
<defs>
<linearGradient id="paint0_linear_94_60935" x1="9.21126" y1="0.840519" x2="12.0584" y2="15.0567" gradientUnits="userSpaceOnUse">
<stop stop-color="#D3FDFF"/>
<stop offset="1" stop-color="#33C7CF"/>
</linearGradient>
<linearGradient id="paint1_linear_94_60935" x1="58.7899" y1="0.840519" x2="63.749" y2="13.7169" gradientUnits="userSpaceOnUse">
<stop stop-color="#D3FDFF"/>
<stop offset="1" stop-color="#33C7CF"/>
</linearGradient>
</defs>
</svg>
