<svg width="96" height="154" viewBox="0 0 96 154" fill="none" xmlns="http://www.w3.org/2000/svg">
<path d="M60.6615 5.9772L60.5093 6.69714L60.5094 6.69718L60.6615 5.9772ZM91.4828 -11.369L90.7241 -11.4256L90.724 -11.4255L91.4828 -11.369ZM80.605 -30.0473L81.0158 -30.656L81.0156 -30.6562L80.605 -30.0473ZM58.9842 -36.7553L58.9282 -36.0191L58.9285 -36.0191L58.9842 -36.7553ZM5.78356 -16.387L5.12055 -16.77L5.1204 -16.7697L5.78356 -16.387ZM5.8476 27.5022L6.55099 27.2466L6.55097 27.2466L5.8476 27.5022ZM99.468 83.7302L99.3688 82.9932L99.3687 82.9932L99.468 83.7302ZM125.333 74.2052L125.851 74.7637L125.851 74.7635L125.333 74.2052ZM132.315 49.2804L133.017 49.0208L133.016 49.0205L132.315 49.2804ZM114.295 34.8147L114.505 34.1106L114.505 34.1106L114.295 34.8147ZM69.0326 43.6044L69.5233 44.1855L69.5235 44.1854L69.0326 43.6044ZM47.7529 84.0224L46.9975 83.9212L46.9975 83.9213L47.7529 84.0224ZM160.693 146.592L161.218 147.144L161.218 147.144L160.693 146.592ZM88.5089 -82.6175L88.5693 -83.3531C72.2932 -85.1611 55.3402 -80.6519 43.411 -70.1158L43.9313 -69.5594L44.4515 -69.003C56.0352 -79.2339 72.5518 -83.6476 88.4485 -81.8818L88.5089 -82.6175ZM43.9313 -69.5594L43.411 -70.1158C31.4825 -59.5804 25.1629 -42.9335 28.2778 -27.0947L29.0234 -27.21L29.7691 -27.3254C26.7617 -42.6179 32.8671 -58.7715 44.4515 -69.003L43.9313 -69.5594ZM29.0234 -27.21L28.2778 -27.0947C31.3921 -11.2583 44.3701 2.94265 60.5093 6.69714L60.6615 5.9772L60.8137 5.25724C45.3263 1.65437 32.777 -12.0303 29.7691 -27.3254L29.0234 -27.21ZM60.6615 5.9772L60.5094 6.69718C67.4103 8.30132 75.1557 7.27087 81.2622 4.13254C87.3731 0.991946 91.937 -4.31806 92.2415 -11.3124L91.4828 -11.369L90.724 -11.4255C90.448 -5.08609 86.3158 -0.162178 80.5185 2.81728C74.7167 5.79901 67.3418 6.77475 60.8136 5.25721L60.6615 5.9772ZM91.4828 -11.369L92.2415 -11.3123C92.5779 -19.0132 87.5468 -26.3448 81.0158 -30.656L80.605 -30.0473L80.1942 -29.4386C86.409 -25.336 91.0314 -18.4602 90.7241 -11.4256L91.4828 -11.369ZM80.605 -30.0473L81.0156 -30.6562C74.4865 -34.9624 66.6365 -36.6942 59.0399 -37.4915L58.9842 -36.7553L58.9285 -36.0191C66.4314 -35.2316 73.9811 -33.5364 80.1944 -29.4384L80.605 -30.0473ZM58.9842 -36.7553L59.0401 -37.4914C38.5947 -39.6446 15.2716 -34.1434 5.12055 -16.77L5.78356 -16.387L6.44657 -16.0041C16.1749 -32.654 38.7345 -38.1458 58.9282 -36.0191L58.9842 -36.7553ZM5.78356 -16.387L5.1204 -16.7697C-2.60008 -3.5441 -0.757099 13.4338 5.14422 27.7578L5.8476 27.5022L6.55097 27.2466C0.739515 13.1407 -0.959269 -3.31751 6.44671 -16.0044L5.78356 -16.387ZM5.8476 27.5022L5.14421 27.7577C19.9302 63.6532 60.739 88.164 99.5673 84.4672L99.468 83.7302L99.3687 82.9932C61.2271 86.6246 21.0771 62.5111 6.55099 27.2466L5.8476 27.5022ZM99.468 83.7302L99.5671 84.4672C109.034 83.5674 118.751 80.9762 125.851 74.7637L125.333 74.2052L124.815 73.6466C118.047 79.5684 108.695 82.1068 99.3688 82.9932L99.468 83.7302ZM125.333 74.2052L125.851 74.7635C132.947 68.5478 136.799 58.0549 133.017 49.0208L132.315 49.2804L131.613 49.5399C135.09 57.844 131.583 67.7188 124.815 73.6468L125.333 74.2052ZM132.315 49.2804L133.016 49.0205C129.862 41.4936 122.226 36.5371 114.505 34.1106L114.295 34.8147L114.084 35.5187C121.57 37.8713 128.705 42.6001 131.613 49.5402L132.315 49.2804ZM114.295 34.8147L114.505 34.1106C98.72 29.1503 81.0258 33.1331 68.5417 43.0234L69.0326 43.6044L69.5235 44.1854C81.6671 34.5648 98.8444 30.7297 114.084 35.5188L114.295 34.8147ZM69.0326 43.6044L68.5419 43.0232C56.0549 52.9097 48.6761 68.1568 46.9975 83.9212L47.7529 84.0224L48.5083 84.1237C50.1528 68.679 57.3793 53.8003 69.5233 44.1855L69.0326 43.6044ZM47.7529 84.0224L46.9975 83.9213C44.1199 110.977 58.7074 139.912 83.2688 153.884L83.6346 153.248L84.0004 152.611C59.9975 138.957 45.6906 110.616 48.5083 84.1236L47.7529 84.0224ZM83.6346 153.248L83.2688 153.884C107.829 167.856 140.951 165.35 161.218 147.144L160.693 146.592L160.168 146.039C140.401 163.797 108.004 166.266 84.0004 152.611L83.6346 153.248ZM160.693 146.592L161.218 147.144C181.486 128.933 186.527 96.188 171.917 72.3147L171.268 72.6779L170.619 73.0412C184.845 96.2854 179.94 128.274 160.168 146.039L160.693 146.592Z" fill="url(#paint0_linear_93_60165)"/>
<defs>
<linearGradient id="paint0_linear_93_60165" x1="93.7637" y1="5.50011" x2="28.1611" y2="28.6084" gradientUnits="userSpaceOnUse">
<stop stop-color="#FF5ACD"/>
<stop offset="0.685235" stop-color="#FF27BE"/>
<stop offset="1" stop-color="#FFACE6"/>
</linearGradient>
</defs>
</svg>
