<svg width="22" height="22" viewBox="0 0 22 22" fill="none" xmlns="http://www.w3.org/2000/svg">
<path opacity="0.4" d="M20.0926 9.87368C20.0926 9.44637 19.7471 9.0918 19.3107 9.0918H2.69112C2.25472 9.0918 1.90924 9.43728 1.90924 9.87368C1.90924 15.2287 5.64592 18.9653 11.0009 18.9653C16.3559 18.9653 20.0926 15.2196 20.0926 9.87368Z" fill="#B4EAFF"/>
<path d="M11.4191 14.5472L14.0103 11.9651C14.2739 11.7015 14.2739 11.2651 14.0103 11.0014C13.7466 10.7378 13.3102 10.7378 13.0465 11.0014L11.6282 12.4197V3.71898C11.6282 3.34623 11.3191 3.03711 10.9464 3.03711C10.5736 3.03711 10.2645 3.34623 10.2645 3.71898V12.4197L8.8371 11.0014C8.57345 10.7378 8.13705 10.7378 7.87339 11.0014C7.73701 11.1378 7.67337 11.3105 7.67337 11.4833C7.67337 11.656 7.73701 11.8288 7.87339 11.9651L10.4645 14.5472C10.7282 14.8199 11.1555 14.8199 11.4191 14.5472Z" fill="#B4EAFF"/>
</svg>
