<svg width="20" height="20" viewBox="0 0 20 20" fill="none" xmlns="http://www.w3.org/2000/svg">
<path d="M13.5416 18.75C14.347 18.75 14.9999 18.0971 14.9999 17.2917C14.9999 16.4862 14.347 15.8333 13.5416 15.8333C12.7362 15.8333 12.0833 16.4862 12.0833 17.2917C12.0833 18.0971 12.7362 18.75 13.5416 18.75Z" fill="#161B33"/>
<path d="M6.87508 18.75C7.6805 18.75 8.33341 18.0971 8.33341 17.2917C8.33341 16.4862 7.6805 15.8333 6.87508 15.8333C6.06967 15.8333 5.41675 16.4862 5.41675 17.2917C5.41675 18.0971 6.06967 18.75 6.87508 18.75Z" fill="#161B33"/>
<path opacity="0.4" d="M4.03341 3.28334L3.86675 5.325C3.83341 5.71667 4.14175 6.04167 4.53342 6.04167H17.2917C17.6417 6.04167 17.9334 5.775 17.9584 5.425C18.0668 3.95 16.9417 2.75001 15.4667 2.75001H5.24174C5.15841 2.38334 4.99174 2.03334 4.73341 1.74167C4.32508 1.3 3.74175 1.04167 3.14175 1.04167H1.66675C1.32508 1.04167 1.04175 1.32501 1.04175 1.66667C1.04175 2.00834 1.32508 2.29167 1.66675 2.29167H3.11675C3.37509 2.29167 3.61675 2.40001 3.79175 2.58334C3.96675 2.77501 4.05008 3.02501 4.03341 3.28334Z" fill="#161B33"/>
<path d="M17.0916 7.29167H4.3083C3.9583 7.29167 3.67496 7.55833 3.64163 7.9L3.34163 11.525C3.22496 12.9417 4.34163 14.1667 5.76663 14.1667H15.0333C16.2833 14.1667 17.3833 13.1417 17.475 11.8917L17.75 8.00001C17.7833 7.61668 17.4833 7.29167 17.0916 7.29167Z" fill="#161B33"/>
</svg>
