<svg width="25" height="24" viewBox="0 0 25 24" fill="none" xmlns="http://www.w3.org/2000/svg">
<path d="M1 12C1 14.9174 2.18737 17.7153 4.30089 19.7782C6.41441 21.8411 9.28096 23 12.2699 23C15.2589 23 18.1255 21.8411 20.239 19.7782C22.3525 17.7153 23.5399 14.9174 23.5399 12C23.5399 9.08262 22.3525 6.28473 20.239 4.22183C18.1255 2.15893 15.2589 1 12.2699 1C9.28096 1 6.41441 2.15893 4.30089 4.22183C2.18737 6.28473 1 9.08262 1 12Z" fill="url(#paint0_linear_2221_9130)" stroke="url(#paint1_linear_2221_9130)" stroke-linejoin="round"/>
<path d="M4.91094 11.4133C4.86011 11.4327 4.81639 11.4666 4.7854 11.5104C4.75442 11.5543 4.73758 11.6062 4.73706 11.6595C4.73706 11.7664 4.80897 11.8669 4.91094 11.9046L8.11697 13.0465L14.7222 9.71826C14.7571 9.70245 14.7966 9.69903 14.8339 9.70859C14.8711 9.71815 14.9037 9.7401 14.9262 9.77064C14.9472 9.80206 14.9563 9.83965 14.952 9.87693C14.9477 9.91422 14.9302 9.94887 14.9025 9.97493L10.1617 14.0544L15.4381 17.7818C15.51 17.8321 15.6066 17.8446 15.6893 17.8153C15.7307 17.8002 15.7676 17.7754 15.7968 17.7431C15.826 17.7107 15.8466 17.6719 15.8567 17.6299L18.495 6.79959C18.5064 6.75327 18.5046 6.70479 18.4898 6.65938C18.4751 6.61397 18.4479 6.57334 18.4113 6.54188C18.3746 6.5104 18.3298 6.48928 18.2818 6.48079C18.2338 6.47229 18.1843 6.47676 18.1386 6.49369L4.91094 11.4133Z" fill="url(#paint2_linear_2221_9130)" stroke="#273556" stroke-linecap="round" stroke-linejoin="round"/>
<path d="M8.11719 13.0476L8.94258 17.1511C8.96834 17.2685 9.08211 17.3586 9.20447 17.3586C9.26572 17.3576 9.32486 17.3366 9.37251 17.299C9.42015 17.2614 9.45356 17.2094 9.46743 17.1511L10.1576 14.0544M12.1658 15.4739L9.37513 17.3051L12.1658 15.4739Z" fill="url(#paint3_linear_2221_9130)"/>
<path d="M8.11719 13.0476L8.94258 17.1511C8.96834 17.2685 9.08211 17.3586 9.20447 17.3586C9.26572 17.3576 9.32486 17.3366 9.37251 17.299C9.42015 17.2614 9.45356 17.2094 9.46743 17.1511L10.1576 14.0544M12.1658 15.4739L9.37513 17.3051" stroke="#273556" stroke-linecap="round" stroke-linejoin="round"/>
<defs>
<linearGradient id="paint0_linear_2221_9130" x1="12.2699" y1="1" x2="12.2699" y2="23" gradientUnits="userSpaceOnUse">
<stop stop-color="#DFEEFF"/>
<stop offset="1" stop-color="#6CB0FD"/>
</linearGradient>
<linearGradient id="paint1_linear_2221_9130" x1="7.46143" y1="1" x2="23.8497" y2="15.167" gradientUnits="userSpaceOnUse">
<stop stop-color="#F5F5F5"/>
<stop offset="1" stop-color="#9E9E9E" stop-opacity="0.26"/>
</linearGradient>
<linearGradient id="paint2_linear_2221_9130" x1="11.6197" y1="6.47659" x2="11.6197" y2="17.8309" gradientUnits="userSpaceOnUse">
<stop stop-color="#DFEEFF"/>
<stop offset="1" stop-color="#6CB0FD"/>
</linearGradient>
<linearGradient id="paint3_linear_2221_9130" x1="10.1415" y1="13.0476" x2="10.1415" y2="17.3586" gradientUnits="userSpaceOnUse">
<stop stop-color="#DFEEFF"/>
<stop offset="1" stop-color="#6CB0FD"/>
</linearGradient>
</defs>
</svg>
